<svg width="20" height="14" viewBox="0 0 20 14" fill="none" xmlns="http://www.w3.org/2000/svg">
    <path fill-rule="evenodd" clip-rule="evenodd" d="M9.99957 12.1C7.27379 12.1 4.40917 10.4953 2.07119 6.99998C4.40917 3.5047 7.27379 1.89998 9.99957 1.89998C12.7255 1.89998 15.5901 3.5047 17.9281 6.99998C15.5901 10.4953 12.7255 12.1 9.99957 12.1ZM19.7628 6.52298C17.1544 2.34953 13.6527 0.0999756 9.99957 0.0999756C6.3465 0.0999756 2.84481 2.34953 0.236409 6.52298C0.0540094 6.81478 0.0540094 7.18518 0.236409 7.47698C2.84481 11.6504 6.3465 13.9 9.99957 13.9C13.6527 13.9 17.1544 11.6505 19.7628 7.47698C19.9452 7.18518 19.9452 6.81478 19.7628 6.52298ZM9.99957 11C12.2087 11 13.9996 9.20908 13.9996 6.99998C13.9996 4.79084 12.2087 2.99998 9.99957 2.99998C7.79044 2.99998 5.99958 4.79084 5.99958 6.99998C5.99958 9.20908 7.79044 11 9.99957 11Z" fill="#1D2027"/>
</svg>
