<svg width="20" height="11" viewBox="0 0 20 11" fill="none" xmlns="http://www.w3.org/2000/svg">
    <path d="M1.79614 0.580285C1.56434 0.140589 1.01998 -0.0279424 0.580285 0.20386C0.140589 0.435662 -0.0279424 0.980019 0.20386 1.41972L1.79614 0.580285ZM2.31674 4.58579C2.64026 4.96315 3.20843 5.00679 3.58579 4.68326C3.96315 4.35974 4.00679 3.79157 3.68326 3.41421L2.31674 4.58579ZM19.7961 1.41972C20.0279 0.980021 19.8594 0.435664 19.4197 0.203861C18.98 -0.0279424 18.4357 0.140588 18.2039 0.580283L19.7961 1.41972ZM16.3168 3.41414C15.9932 3.79147 16.0368 4.35965 16.4141 4.68321C16.7915 5.00677 17.3596 4.96318 17.6832 4.58586L16.3168 3.41414ZM17.6364 4.3636C17.2849 4.01213 16.7151 4.01213 16.3636 4.3636C16.0121 4.71508 16.0121 5.28492 16.3636 5.6364L17.6364 4.3636ZM18.3636 7.6364C18.7151 7.98787 19.2849 7.98787 19.6364 7.6364C19.9879 7.28492 19.9879 6.71508 19.6364 6.3636L18.3636 7.6364ZM17.4768 5.76332C17.8984 5.5 18.0267 4.94477 17.7633 4.5232C17.5 4.10163 16.9448 3.97335 16.5232 4.23668L17.4768 5.76332ZM11.8197 6.11825C11.3327 6.21783 11.0187 6.69334 11.1182 7.18032C11.2178 7.66729 11.6933 7.98134 12.1803 7.88175L11.8197 6.11825ZM3.6364 5.6364C3.98787 5.28492 3.98787 4.71508 3.6364 4.3636C3.28492 4.01213 2.71508 4.01213 2.3636 4.3636L3.6364 5.6364ZM0.363604 6.3636C0.012132 6.71508 0.012132 7.28492 0.363604 7.6364C0.715076 7.98787 1.28492 7.98787 1.6364 7.6364L0.363604 6.3636ZM3.47678 4.23666C3.0552 3.97335 2.49998 4.10164 2.23666 4.52322C1.97335 4.9448 2.10164 5.50002 2.52322 5.76334L3.47678 4.23666ZM7.81968 7.88175C8.30666 7.98134 8.78216 7.6673 8.88175 7.18032C8.98134 6.69334 8.6673 6.21784 8.18032 6.11825L7.81968 7.88175ZM12.8538 6.71539C12.6966 6.24385 12.1869 5.989 11.7154 6.14618C11.2438 6.30337 10.989 6.81306 11.1462 7.28461L12.8538 6.71539ZM12.1462 10.2846C12.3034 10.7562 12.8131 11.011 13.2846 10.8538C13.7562 10.6966 14.011 10.1869 13.8538 9.71539L12.1462 10.2846ZM13.276 8.15737C13.7491 8.00496 14.0091 7.49787 13.8566 7.02475C13.7042 6.55164 13.1971 6.29167 12.724 6.44408L13.276 8.15737ZM8.27597 6.44408C7.80286 6.29167 7.29577 6.55164 7.14335 7.02476C6.99094 7.49787 7.25092 8.00496 7.72403 8.15737L8.27597 6.44408ZM8.85382 7.28461C9.011 6.81306 8.75615 6.30337 8.28461 6.14618C7.81306 5.989 7.30337 6.24385 7.14618 6.71539L8.85382 7.28461ZM6.14618 9.71539C5.989 10.1869 6.24385 10.6966 6.71539 10.8538C7.18694 11.011 7.69663 10.7562 7.85382 10.2846L6.14618 9.71539ZM0.20386 1.41972C0.848156 2.64185 1.55666 3.69924 2.31674 4.58579L3.68326 3.41421C3.02273 2.64376 2.38715 1.70135 1.79614 0.580285L0.20386 1.41972ZM18.2039 0.580283C17.6128 1.7014 16.9773 2.64387 16.3168 3.41414L17.6832 4.58586C18.4434 3.69933 19.1519 2.6418 19.7961 1.41972L18.2039 0.580283ZM16.3636 5.6364L18.3636 7.6364L19.6364 6.3636L17.6364 4.3636L16.3636 5.6364ZM16.5232 4.23668C15.0508 5.15641 13.4571 5.7834 11.8197 6.11825L12.1803 7.88175C14.0257 7.50437 15.8205 6.79792 17.4768 5.76332L16.5232 4.23668ZM2.3636 4.3636L0.363604 6.3636L1.6364 7.6364L3.6364 5.6364L2.3636 4.3636ZM2.52322 5.76334C4.17961 6.79792 5.9743 7.50437 7.81968 7.88175L8.18032 6.11825C6.54291 5.7834 4.94933 5.15642 3.47678 4.23666L2.52322 5.76334ZM11.1462 7.28461L12.1462 10.2846L13.8538 9.71539L12.8538 6.71539L11.1462 7.28461ZM12.724 6.44408C11.2539 6.91767 9.74607 6.91767 8.27597 6.44408L7.72403 8.15737C9.55301 8.74658 11.447 8.74658 13.276 8.15737L12.724 6.44408ZM7.14618 6.71539L6.14618 9.71539L7.85382 10.2846L8.85382 7.28461L7.14618 6.71539Z" fill="#1D2027"/>
</svg>
